PathFileType	4	(X/Y/Z)	/Users/itak/Documents/Research/Walk-IL/dataset/trc/00485_00167.trc
DataRate	CameraRate	NumFrames	NumMarkers	Units	OrigDataRate	OrigDataStartFrame	OrigNumFrames
100.000000	100.000000	4	53	mm	100.000000	353	566
Frame#	Time	RPSI			LPSI			L3			STRN			T10			C7			CLAV			RBAK			LBAK			LSHO			LUPA			LAEL			LAOL			LWTS			LWPS			LFRA			LIFD			LHPS			RSHO			RUPA			RAEL			RAOL			RWTS			RWPS			RFRA			RIFD			RHTS			RHPS			RBHD			LFHD			RFHD			LBHD			LHIP			RHIP			RASI			LASI			LKNE			LTHI			LANK			LTIP			LTOE			LMT1			LMT5			LHEE			RKNE			RTHI			RANK			RTIP			RTOE			RMT1			RMT5			RHEE			LHTS			
		X1	Y1	Z1	X2	Y2	Z2	X3	Y3	Z3	X4	Y4	Z4	X5	Y5	Z5	X6	Y6	Z6	X7	Y7	Z7	X8	Y8	Z8	X9	Y9	Z9	X10	Y10	Z10	X11	Y11	Z11	X12	Y12	Z12	X13	Y13	Z13	X14	Y14	Z14	X15	Y15	Z15	X16	Y16	Z16	X17	Y17	Z17	X18	Y18	Z18	X19	Y19	Z19	X20	Y20	Z20	X21	Y21	Z21	X22	Y22	Z22	X23	Y23	Z23	X24	Y24	Z24	X25	Y25	Z25	X26	Y26	Z26	X27	Y27	Z27	X28	Y28	Z28	X29	Y29	Z29	X30	Y30	Z30	X31	Y31	Z31	X32	Y32	Z32	X33	Y33	Z33	X34	Y34	Z34	X35	Y35	Z35	X36	Y36	Z36	X37	Y37	Z37	X38	Y38	Z38	X39	Y39	Z39	X40	Y40	Z40	X41	Y41	Z41	X42	Y42	Z42	X43	Y43	Z43	X44	Y44	Z44	X45	Y45	Z45	X46	Y46	Z46	X47	Y47	Z47	X48	Y48	Z48	X49	Y49	Z49	X50	Y50	Z50	X51	Y51	Z51	X52	Y52	Z52	X53	Y53	Z53	

354	3.53	37.10905838012695	942.9404907226562	467.4447631835938	-17.14152526855469	925.2584228515625	337.05615234375	20.44697380065918	1040.103637695312	400.9540405273438	245.6489105224609	1243.849853515625	259.1806640625	-6.14218282699585	1162.755126953125	395.2229919433594	41.91558456420898	1434.217041015625	356.7680358886719	202.7116851806641	1353.912841796875	263.5697631835938	39.1124382019043	1323.383178710938	477.1443786621094	-31.55823707580566	1374.195190429688	286.6070556640625	22.0165958404541	1390.301025390625	168.9096527099609	-8.843867301940918	1262.89306640625	87.15650177001953	47.01192474365234	1052.701782226562	48.80689239501953	-3.408277988433838	1026.24755859375	137.4006958007812	192.46630859375	886.9537353515625	72.52857971191406	140.0854034423828	853.5809936523438	31.0878791809082	87.78083038330078	972.2216186523438	35.40579223632812	247.4615478515625	734.5352172851562	65.66770172119141	173.7694091796875	782.9070434570312	29.44997215270996	179.9967956542969	1421.49560546875	465.2095642089844	201.4851684570312	1369.656005859375	544.8890991210938	243.6102752685547	1098.44482421875	635.7853393554688	180.3394927978516	1076.26171875	620.6602172851562	323.7593383789062	881.6937255859375	587.5634765625	290.2664794921875	881.6939086914062	670.0031127929688	252.8765258789062	1042.39013671875	652.98583984375	325.1856079101562	727.824462890625	619.1131591796875	339.446044921875	785.2791137695312	606.7191162109375	301.4684753417969	792.3814086914062	673.67529296875	176.4616851806641	1645.973388671875	331.525634765625	82.25391387939453	1631.426025390625	148.2346954345703	199.8507843017578	1661.013671875	196.6256256103516	9.627328872680664	1610.0537109375	281.0082092285156	77.0634765625	818.0100708007812	186.9761505126953	216.4764862060547	875.4324951171875	556.8180541992188	277.8742370605469	915.7698364257812	452.0575256347656	190.9506683349609	876.0908813476562	215.3550872802734	181.4810791015625	413.9621887207031	278.9358215332031	164.8212280273438	561.357666015625	222.1251983642578	102.7167816162109	34.45611572265625	441.1617431640625	163.5006103515625	262.4350891113281	316.7780456542969	331.4978637695312	37.53409576416016	352.8757019042969	287.5964050292969	44.88969039916992	420.0994873046875	213.4722900390625	42.69841003417969	334.3015747070312	110.2659759521484	47.26624298095703	517.845458984375	342.6031188964844	514.2671508789062	580.4501342773438	295.883544921875	760.02197265625	561.3828125	92.42481231689453	202.8854675292969	772.9550170898438	290.1624450683594	396.9488830566406	646.7298583984375	215.7002258300781	44.05685043334961	691.7244873046875	162.4752807617188	88.35073089599609	666.5670166015625	178.6735229492188	103.1324005126953	770.8677368164062	32.086669921875	243.1732482910156	741.9810791015625	233.4361267089844	811.2073974609375	58.71110153198242	
355	3.54	45.71216583251953	943.8588256835938	468.1756286621094	-12.81593132019043	926.163330078125	339.6074523925781	26.87790107727051	1040.899047851562	401.5912780761719	248.7740173339844	1243.733276367188	253.8054504394531	0.1496282517910004	1163.467407226562	395.8243408203125	47.8548698425293	1434.784423828125	355.6193237304688	206.4332122802734	1353.98681640625	259.3170471191406	47.35426330566406	1324.074829101562	476.1208190917969	-27.32668495178223	1374.953369140625	286.9869384765625	23.98267936706543	1390.851440429688	168.3664093017578	-7.543616771697998	1263.556518554688	86.92306518554688	50.69695663452148	1054.143920898438	46.88890075683594	1.147646427154541	1026.656372070312	135.7715148925781	198.285400390625	890.0610961914062	68.65242004394531	146.1016387939453	856.3209228515625	27.41953468322754	92.22139739990234	974.1451416015625	32.87456893920898	255.0408477783203	738.310791015625	60.35750579833984	180.5336456298828	786.0611572265625	25.11833763122559	188.1019439697266	1421.931640625	461.292724609375	210.7482604980469	1370.118774414062	540.6702880859375	251.4579162597656	1098.382934570312	630.8351440429688	187.7326202392578	1076.768676757812	616.51123046875	329.1618041992188	880.902099609375	582.3648681640625	295.9247436523438	881.2335205078125	664.7509765625	260.3833618164062	1042.247436523438	647.9710083007812	329.3825073242188	726.9313354492188	614.3388061523438	344.1950073242188	784.2521362304688	601.6633911132812	306.3940124511719	791.9281616210938	668.6923828125	182.8886108398438	1645.950317382812	327.7849731445312	86.62672424316406	1631.70751953125	145.5488433837891	204.9254302978516	1660.525634765625	192.6213226318359	15.24301147460938	1611.1826171875	279.146240234375	75.80080413818359	817.9921264648438	187.0985260009766	228.0637054443359	875.92041015625	551.461181640625	285.7964782714844	916.0545043945312	444.6150512695312	190.9364471435547	875.7863159179688	210.9878082275391	179.9547729492188	413.8023071289062	278.1849975585938	162.5929412841797	561.1309204101562	221.6519165039062	102.753547668457	34.51385116577148	441.2563781738281	162.4256896972656	262.3108520507812	316.3538818359375	331.5032958984375	37.49860000610352	352.8310241699219	287.5277099609375	44.97952270507812	419.9392700195312	213.3025817871094	42.58781814575195	334.1502075195312	110.4428939819336	47.44647979736328	517.9046020507812	353.9229431152344	514.3923950195312	570.043701171875	307.3982849121094	760.2724609375	553.0897827148438	118.8867111206055	198.4690399169922	774.3364868164062	305.9603881835938	396.9668884277344	638.968017578125	244.0323791503906	44.99226760864258	686.5162963867188	187.9599304199219	87.00514221191406	664.1304321289062	208.5797424316406	102.2876815795898	767.5057983398438	55.76969146728516	236.8702850341797	746.5216674804688	240.0939025878906	814.8735961914062	53.97767639160156	
356	3.55	54.41808700561523	944.7098999023438	468.7769165039062	-8.395401000976562	927.039794921875	342.1890258789062	33.37009429931641	1041.63623046875	402.2337646484375	251.7967529296875	1243.514282226562	248.4139862060547	6.631101131439209	1164.12744140625	396.3768005371094	53.85542297363281	1435.314331054688	354.4376831054688	210.1028594970703	1353.962890625	255.02490234375	55.68130874633789	1324.713989257812	475.0390319824219	-23.02116012573242	1375.657470703125	287.4085693359375	25.93432235717773	1391.344482421875	167.8931884765625	-6.290945053100586	1264.159423828125	86.76181030273438	54.16492462158203	1055.517700195312	45.03427505493164	5.510706901550293	1027.050903320312	134.2269592285156	203.7802581787109	893.0479736328125	64.82247161865234	151.778564453125	858.961181640625	23.81424522399902	96.40058135986328	976.0083618164062	30.38762855529785	262.1090698242188	741.891357421875	55.23014831542969	186.8535461425781	789.084228515625	20.90389823913574	196.2375335693359	1422.286376953125	457.249755859375	220.0654449462891	1370.543701171875	536.3201904296875	259.3276062011719	1098.31201171875	625.9566040039062	195.1704254150391	1077.212158203125	612.5455322265625	334.74609375	880.2604370117188	577.0277099609375	301.8967590332031	880.77001953125	659.3700561523438	268.0010070800781	1042.091796875	642.9929809570312	334.0189514160156	726.1797485351562	609.1072387695312	349.2509460449219	783.3946533203125	596.2230834960938	311.7398986816406	791.4636840820312	663.38427734375	189.2395935058594	1645.865600585938	324.0341796875	90.97949981689453	1631.93212890625	142.8553466796875	209.9638214111328	1659.98583984375	188.6138458251953	20.7990894317627	1612.24462890625	277.2538146972656	74.58003997802734	818.0127563476562	187.3382263183594	239.5230865478516	876.233154296875	545.83203125	293.5308837890625	916.2069091796875	437.0352478027344	190.7497711181641	875.434814453125	206.7745208740234	178.4823608398438	413.6536254882812	277.4713134765625	160.3226623535156	560.9320068359375	221.2965850830078	102.7980117797852	34.57337188720703	441.3463745117188	161.3933715820312	262.1888732910156	315.9287719726562	331.5108642578125	37.46923446655273	352.7803649902344	287.4512939453125	45.07268524169922	419.7734069824219	213.1345367431641	42.48276519775391	333.9954528808594	110.5887222290039	47.62463760375977	517.9710083007812	364.7120056152344	514.25244140625	559.2965087890625	318.6247863769531	760.3541259765625	544.543212890625	145.9355316162109	193.2594909667969	774.1699829101562	321.5221557617188	396.5599670410156	630.4458618164062	271.8263549804688	45.62989807128906	678.2713623046875	213.1566314697266	85.51479339599609	659.339111328125	238.4592437744141	100.6771087646484	761.5424194335938	80.26985168457031	229.9398040771484	750.0357055664062	246.3392333984375	818.3687133789062	49.37055206298828	
357	3.56	63.22451782226562	945.4946899414062	469.2315673828125	-3.873066186904907	927.8914184570312	344.7844543457031	39.91740417480469	1042.320556640625	402.8655395507812	254.72802734375	1243.18994140625	243.0180969238281	13.2718677520752	1164.735961914062	396.8739929199219	59.92403793334961	1435.8037109375	353.2111511230469	213.7267456054688	1353.834228515625	250.6921539306641	64.08826446533203	1325.2978515625	473.8855895996094	-18.63234329223633	1376.309204101562	287.857421875	27.90229797363281	1391.778686523438	167.4678344726562	-5.089217185974121	1264.6875	86.68303680419922	57.37970352172852	1056.794189453125	43.25613784790039	9.662787437438965	1027.413696289062	132.7690582275391	208.9302825927734	895.906982421875	61.04536056518555	157.1004638671875	861.4822387695312	20.28524208068848	100.2958374023438	977.794189453125	27.94784736633301	268.7118225097656	745.2879638671875	50.2951774597168	192.7359771728516	791.9646606445312	16.81008720397949	204.4017639160156	1422.548706054688	453.0755920410156	229.4334259033203	1370.915283203125	531.8296508789062	267.2783508300781	1098.2275390625	621.1323852539062	202.7219390869141	1077.595458984375	608.7501220703125	340.4742431640625	879.7113647460938	571.474609375	308.2344360351562	880.2881469726562	653.8457641601562	275.7839660644531	1041.91552734375	638.0369873046875	339.0649108886719	725.5402221679688	603.3924560546875	354.5671691894531	782.67041015625	590.3494262695312	317.5370788574219	790.9651489257812	657.7445678710938	195.5127410888672	1645.724365234375	320.2671203613281	95.31084442138672	1632.098754882812	140.1452331542969	214.9593048095703	1659.401245117188	184.5948028564453	26.30388832092285	1613.225341796875	275.3243103027344	73.41209411621094	818.0606689453125	187.6784057617188	250.8448181152344	876.37841796875	539.9395141601562	301.0556640625	916.2263793945312	429.3281555175781	190.4132843017578	875.0462036132812	202.7237243652344	177.1168518066406	413.5135192871094	276.8085632324219	158.1155090332031	560.7538452148438	221.0162963867188	102.8469848632812	34.63663864135742	441.432373046875	160.4390563964844	262.0758056640625	315.5140075683594	331.5208435058594	37.44280242919922	352.7261352539062	287.375	45.17527770996094	419.6033935546875	212.9733428955078	42.38464736938477	333.83642578125	110.6976852416992	47.80300521850586	518.045166015625	375.0206909179688	513.84765625	548.2289428710938	329.5683288574219	760.260986328125	535.758544921875	173.4573211669922	187.3784637451172	772.283935546875	336.8588256835938	395.6866149902344	621.0933227539062	298.8478088378906	45.97085952758789	667.160400390625	237.8564300537109	83.84330749511719	652.245361328125	268.0996398925781	98.39203643798828	753.0152587890625	105.5	222.4546051025391	752.2880249023438	252.1697235107422	821.7030029296875	44.89189529418945	
